<?xml version="1.0" encoding="UTF-8"?>
<svg width="124px" height="153px" viewBox="0 0 124 153" version="1.1" xmlns="http://www.w3.org/2000/svg" xmlns:xlink="http://www.w3.org/1999/xlink">
    <!-- Generator: Sketch 52.6 (67491) - http://www.bohemiancoding.com/sketch -->
    <title>icon_ps_store</title>
    <desc>Created with Sketch.</desc>
    <g id="Logos" stroke="none" stroke-width="1" fill="none" fill-rule="evenodd">
        <g id="PS-Store-Mono" fill="#0172CE">
            <path d="M90.0885279,104.385112 C88.5445279,106.305112 84.8035279,107.691112 84.8035279,107.691112 L56.9765279,117.688112 L56.9765279,110.312112 L77.4565279,103.018112 C79.7755279,102.163112 80.1275279,100.992112 78.2535279,100.378112 C76.3495279,99.7601119 72.9505279,99.9381119 70.6095279,100.775112 L56.9765279,105.585112 L56.9765279,97.9161119 L57.7585279,97.6551119 C57.7585279,97.6551119 61.7045279,96.2571119 67.2525279,95.6561119 C72.7905279,95.0481119 79.5835279,95.7331119 84.9225279,97.7481119 C90.9375279,99.6571119 91.6095279,102.443112 90.0885279,104.385112 Z M77.2505279,121.716112 L76.5825279,121.716112 L76.5825279,117.468112 L75.1775279,121.716112 L74.5005279,121.716112 L73.0955279,117.468112 L73.0955279,121.716112 L72.4205279,121.716112 L72.4205279,116.488112 L73.3585279,116.488112 L74.8375279,120.940112 L76.3225279,116.488112 L77.2505279,116.488112 L77.2505279,121.716112 Z M71.7675279,117.082112 L70.0915279,117.082112 L70.0915279,121.716112 L69.4185279,121.716112 L69.4185279,117.082112 L67.7275279,117.082112 L67.7275279,116.488112 L71.7675279,116.488112 L71.7675279,117.082112 Z M54.5515279,71.3221119 L54.5515279,118.544112 L41.8015279,114.501112 L41.8015279,58.1831119 C47.2275279,59.1841119 55.1095279,61.5771119 59.3635279,62.9961119 C70.1415279,66.7041119 73.8055279,71.3191119 73.8055279,81.6781119 C73.8055279,91.8101119 67.5565279,95.6581119 59.6215279,91.8141119 L59.6215279,72.9551119 C59.6215279,70.7561119 59.2135279,68.7041119 57.1355279,68.1261119 C55.5435279,67.6201119 54.5515279,69.0951119 54.5515279,71.3221119 Z M53.4135279,5.39311188 C54.4365279,5.28711188 55.4425279,5.44411188 56.4425279,5.84711188 C50.6905279,13.6861119 49.0355279,27.5131119 48.5645279,35.2431119 C46.1985279,35.2481119 43.9215279,35.2561119 41.7355279,35.2651119 C42.5865279,16.8481119 46.7315279,6.07511188 53.4135279,5.39311188 Z M39.3345279,99.6331119 L26.2005279,104.339112 C23.8745279,105.167112 23.5275279,106.343112 25.4025279,106.957112 C27.3065279,107.595112 30.6925279,107.418112 33.0205279,106.562112 L39.3345279,104.284112 L39.3345279,110.902112 C38.9255279,110.976112 38.4745279,111.043112 38.0615279,111.113112 C31.7665279,112.156112 25.0575279,111.728112 18.4385279,109.535112 C12.2695279,107.814112 11.2405279,104.185112 14.0545279,102.093112 C16.6485279,100.170112 21.0695279,98.7331119 21.0695279,98.7331119 L39.3345279,92.2201119 L39.3345279,99.6331119 Z M60.1265279,8.50311188 C65.6125279,14.1911119 69.3345279,25.9341119 70.9265279,35.2391119 C66.2805279,35.2371119 61.2165279,35.2351119 55.7435279,35.2351119 C54.8645279,35.2351119 53.9975279,35.2351119 53.1385279,35.2361119 C53.6675279,26.7181119 55.4895279,14.6311119 60.1265279,8.50311188 Z M66.8655279,4.61411188 C69.0025279,4.60311188 70.9815279,5.62211188 72.9065279,7.72511188 C78.7245279,14.0711119 81.7335279,27.6351119 82.8545279,35.2491119 C80.5835279,35.2471119 78.1575279,35.2441119 75.5765279,35.2421119 C73.9395279,25.1041119 69.8595279,12.1721119 63.5635279,5.44911188 C64.5695279,4.92611188 65.6655279,4.62111188 66.8655279,4.61411188 Z M118.174528,38.1051119 C118.144528,37.5301119 117.616528,37.0791119 116.982528,37.0871119 L104.799528,35.3361119 C104.689528,35.3071119 104.573528,35.2871119 104.452528,35.2871119 C102.006528,35.2801119 96.2205279,35.2661119 87.5005279,35.2551119 C86.4655279,27.3221119 83.4545279,14.0931119 77.7685279,6.41011188 C74.6055279,2.13611188 70.9285279,-0.0178881178 66.8425279,0.000111882153 C64.1105279,0.0171118822 61.7945279,0.900111882 59.8125279,2.37611188 C57.6185279,1.09011188 55.3225279,0.562111882 52.9515279,0.802111882 C41.4775279,1.97211188 37.8885279,18.8501119 37.1445279,35.2891119 C20.9055279,35.3851119 10.4305279,35.5841119 6.93752793,35.6581119 C6.20452793,35.6741119 5.61352793,36.1911119 5.57352793,36.8551119 C5.29952793,41.4701119 4.23252793,59.5591119 2.72452793,87.3621119 C1.13152793,116.765112 0.227527928,132.804112 0.00152792821,137.048112 C-0.0304720718,137.656112 0.443527928,138.183112 1.10752793,138.284112 L49.6055279,145.635112 L97.5435279,152.900112 C97.9425279,152.961112 98.3215279,152.860112 98.6335279,152.656112 L98.6335279,152.665112 L122.318528,137.521112 C122.946528,137.095112 123.301528,136.414112 123.264528,135.704112 L118.174528,38.1051119 Z" id="icon_ps_store"></path>
        </g>
    </g>
</svg>
