<?xml version="1.0" encoding="UTF-8"?>
<svg width="202px" height="29px" viewBox="0 0 202 29" version="1.1" xmlns="http://www.w3.org/2000/svg" xmlns:xlink="http://www.w3.org/1999/xlink">
    <!-- Generator: Sketch 52.6 (67491) - http://www.bohemiancoding.com/sketch -->
    <title>icon_ps_store_text</title>
    <desc>Created with Sketch.</desc>
    <g id="Logos" stroke="none" stroke-width="1" fill="none" fill-rule="evenodd">
        <g id="PS-Store" fill="#231F20">
            <path d="M9.3504,0.9525 C12.2514,0.9525 14.1254,3.4235 14.1254,7.2435 C14.1254,9.2125 13.5904,10.8545 12.5794,11.9905 C11.7224,12.9535 10.5454,13.5065 9.3504,13.5065 L5.9384,13.5065 C5.9044,13.5065 5.8764,13.4795 5.8764,13.4435 L5.8764,11.3755 C5.8764,11.3435 5.9044,11.3145 5.9384,11.3145 L8.3114,11.3145 C9.7534,11.3145 10.5474,9.8635 10.5474,7.2275 C10.5474,4.5905 9.7534,3.1395 8.3134,3.1395 L4.3624,3.1465 C4.3504,3.1465 4.3394,3.1625 4.3394,3.1765 L4.3364,20.9605 C4.3364,20.9915 4.3094,21.0205 4.2774,21.0205 L0.8204,21.0205 C0.7864,21.0205 0.7574,20.9915 0.7574,20.9605 L0.7574,1.0095 C0.7574,0.9755 0.7864,0.9485 0.8204,0.9485 L9.3504,0.9525 Z M19.7699,0.9481 C19.8039,0.9481 19.8309,0.9761 19.8309,1.0101 L19.8309,20.9601 C19.8309,20.9911 19.8039,21.0211 19.7699,21.0211 L16.3139,21.0211 C16.2809,21.0211 16.2539,20.9911 16.2539,20.9601 L16.2539,1.0101 C16.2539,0.9761 16.2809,0.9481 16.3139,0.9481 L19.7699,0.9481 Z M34.8602,5.8021 L34.8602,5.8971 L34.8622,20.9601 C34.8622,20.9911 34.8332,21.0211 34.8012,21.0211 L31.3462,21.0211 C31.3112,21.0211 31.2832,20.9911 31.2832,20.9601 L31.2872,7.9601 C31.2872,7.9451 31.2772,7.9311 31.2642,7.9311 L28.6292,7.9311 C27.9282,7.9311 27.1412,8.0481 26.6452,8.9371 C26.1922,9.7431 25.9832,11.1511 25.9852,13.3641 L25.9852,16.6891 C25.9852,18.5841 26.7272,18.8201 27.2842,18.8311 L29.6842,18.8271 C29.7202,18.8271 29.7462,18.8541 29.7462,18.8911 L29.7462,20.9601 C29.7462,20.9911 29.7202,21.0211 29.6842,21.0211 L26.3272,21.0211 C24.0552,21.0211 22.4062,19.0971 22.4062,16.4461 L22.4062,13.3651 C22.4062,9.8061 23.1122,5.7421 28.6292,5.7421 L34.7982,5.7421 C34.8332,5.7421 34.8602,5.7681 34.8602,5.8021 Z M59.7396,9.3031 C61.2166,9.4151 62.2866,9.9081 63.0166,10.8091 C63.8636,11.8561 64.2926,13.3211 64.2926,15.1561 C64.2926,20.2611 61.1486,21.0211 59.2746,21.0211 L53.1976,21.0211 C53.1656,21.0211 53.1376,20.9911 53.1376,20.9601 L53.1376,18.8911 C53.1376,18.8581 53.1656,18.8271 53.1976,18.8271 L53.2916,18.8271 L58.0906,18.8271 C60.4466,18.8271 60.7146,16.8291 60.7146,15.7281 L60.7146,15.2311 C60.7146,13.4741 59.9166,12.3221 58.6276,12.2241 L56.9276,12.0961 C54.2026,11.8901 52.3706,9.7471 52.3706,6.7651 L52.3706,6.6081 C52.3706,2.8401 54.6656,0.9501 57.8806,0.9501 L62.9806,0.9481 L62.9856,0.9481 L63.0826,0.9481 C63.1146,0.9481 63.1406,0.9761 63.1406,1.0101 L63.1406,3.0851 C63.1406,3.1191 63.1146,3.1471 63.0826,3.1471 L58.3706,3.1471 C56.9126,3.1471 55.8086,3.8071 55.8086,6.2561 C55.8086,8.3541 56.7606,9.0611 58.0366,9.1731 L59.7396,9.3031 Z M88.0736,5.8021 L88.0736,20.9601 C88.0736,20.9911 88.0446,21.0211 88.0126,21.0211 L84.5556,21.0211 C84.5236,21.0211 84.4956,20.9911 84.4956,20.9601 L84.4996,7.9601 C84.4996,7.9451 84.4876,7.9311 84.4756,7.9311 L81.8396,7.9311 C81.1386,7.9311 80.3546,8.0481 79.8576,8.9371 C79.4036,9.7431 79.1946,11.1511 79.1966,13.3641 L79.1966,16.6891 C79.1976,18.5841 79.9346,18.8201 80.4956,18.8311 L82.8946,18.8271 C82.9306,18.8271 82.9586,18.8541 82.9586,18.8911 L82.9586,20.9601 C82.9586,20.9911 82.9306,21.0211 82.8946,21.0211 L79.5366,21.0211 C77.2676,21.0211 75.6186,19.0971 75.6186,16.4461 L75.6146,13.3651 C75.6146,9.8061 76.3246,5.7421 81.8426,5.7421 L88.0126,5.7421 C88.0446,5.7421 88.0736,5.7681 88.0736,5.8021 Z M74.1702,5.7425 C74.2032,5.7425 74.2312,5.7685 74.2312,5.8025 L74.2312,7.8635 C74.2312,7.8955 74.2032,7.9265 74.1702,7.9265 C74.1702,7.9265 71.5732,7.9305 70.4292,7.9265 C70.4182,7.9265 70.4052,7.9345 70.4052,7.9455 L70.4052,16.8505 C70.4052,18.8015 71.3162,18.8215 71.7042,18.8275 L73.2272,18.8275 C73.2592,18.8275 73.2902,18.8575 73.2902,18.8915 L73.2902,20.9605 C73.2902,20.9915 73.2592,21.0205 73.2272,21.0205 L70.7492,21.0205 C68.4782,21.0205 66.8272,19.0995 66.8272,16.4495 L66.8272,3.2075 C66.8272,3.1745 66.8562,3.1465 66.8902,3.1465 L70.3482,3.1465 C70.3802,3.1465 70.4092,3.1745 70.4092,3.2075 L70.4052,5.7045 L70.4092,5.7185 C70.4092,5.7295 70.4192,5.7425 70.4302,5.7425 L74.1702,5.7425 Z M98.3148,5.7425 C98.3488,5.7425 98.3758,5.7685 98.3758,5.8025 L98.3758,7.8635 C98.3758,7.8955 98.3488,7.9265 98.3148,7.9265 C98.3148,7.9265 95.7158,7.9305 94.5708,7.9265 C94.5598,7.9265 94.5498,7.9345 94.5498,7.9455 L94.5498,16.8505 C94.5498,18.8015 95.4588,18.8215 95.8478,18.8275 L97.3708,18.8275 C97.4058,18.8275 97.4318,18.8575 97.4318,18.8915 L97.4318,20.9605 C97.4318,20.9915 97.4058,21.0205 97.3708,21.0205 L94.8918,21.0205 C92.6208,21.0205 90.9688,19.0995 90.9688,16.4495 L90.9688,3.2075 C90.9688,3.1745 90.9998,3.1465 91.0348,3.1465 L94.4918,3.1465 C94.5228,3.1465 94.5498,3.1745 94.5498,3.2075 L94.5498,5.7045 L94.5498,5.7185 C94.5498,5.7295 94.5618,5.7425 94.5728,5.7425 L98.3148,5.7425 Z M104.033,5.7425 C104.065,5.7425 104.092,5.7685 104.092,5.8025 L104.092,20.9605 C104.092,20.9915 104.065,21.0205 104.033,21.0205 L100.575,21.0205 C100.543,21.0205 100.513,20.9915 100.513,20.9605 L100.513,5.8025 C100.513,5.7685 100.543,5.7425 100.575,5.7425 L104.033,5.7425 Z M104.033,0.9481 C104.065,0.9481 104.092,0.9761 104.092,1.0101 L104.092,3.9031 C104.092,3.9371 104.065,3.9651 104.033,3.9651 L100.575,3.9651 C100.543,3.9651 100.513,3.9371 100.513,3.9031 L100.513,1.0101 C100.513,0.9761 100.543,0.9481 100.575,0.9481 L104.033,0.9481 Z M127.9368,5.7425 C133.4518,5.7425 134.1598,9.8065 134.1598,13.3655 L134.1598,20.9605 C134.1598,20.9915 134.1328,21.0205 134.0978,21.0205 L130.6448,21.0205 C130.6088,21.0205 130.5788,20.9915 130.5788,20.9605 C130.5788,20.9605 130.5868,13.0555 130.5848,12.9655 C130.5848,10.9105 130.3718,9.6085 129.9218,8.8615 C129.4238,8.0415 128.6378,7.9305 127.9358,7.9305 L125.3008,7.9305 C125.2868,7.9305 125.2738,7.9425 125.2738,7.9535 L125.2818,20.9605 C125.2818,20.9915 125.2538,21.0205 125.2188,21.0205 L121.7648,21.0205 C121.7318,21.0205 121.7018,20.9915 121.7018,20.9605 L121.7048,5.8025 C121.7048,5.7685 121.7318,5.7425 121.7648,5.7425 L127.9368,5.7425 Z M115.099,17.828 C115.598,17.021 115.829,15.608 115.829,13.385 C115.829,10.741 115.502,9.245 114.778,8.53 C114.347,8.109 113.787,7.931 112.905,7.931 C112.023,7.931 111.462,8.109 111.035,8.53 C110.305,9.245 109.984,10.737 109.984,13.368 L109.984,13.385 C109.984,15.608 110.214,17.019 110.71,17.828 C111.262,18.721 112.13,18.843 112.905,18.843 C113.682,18.843 114.555,18.721 115.099,17.828 Z M112.905,5.741 C118.68,5.741 119.419,9.827 119.419,13.385 C119.419,16.946 118.68,21.032 112.904,21.032 C107.132,21.032 106.39,16.946 106.39,13.385 C106.39,9.827 107.132,5.741 112.905,5.741 Z M36.8075,5.7425 L40.4355,5.7415 C40.4715,5.7415 40.5075,5.7675 40.5195,5.7995 L43.8795,15.6705 C43.8925,15.7025 43.9095,15.7045 43.9235,15.6705 L47.7395,5.7995 C47.7535,5.7675 47.7915,5.7425 47.8265,5.7425 L51.1045,5.7425 C51.1415,5.7425 51.1575,5.7675 51.1455,5.7995 L42.1355,28.3855 C42.1235,28.4155 42.0845,28.4435 42.0495,28.4435 L39.0455,28.4435 C39.0125,28.4435 38.9935,28.4155 39.0075,28.3855 L41.8855,20.9365 C41.8995,20.9065 41.8995,20.8525 41.8895,20.8205 L36.7655,5.8005 C36.7555,5.7675 36.7745,5.7425 36.8075,5.7425 Z M153.8099,3.4994 C152.4039,2.9374 150.8849,2.6544 149.3939,2.6544 C147.4829,2.6544 145.3439,3.3854 145.3439,5.7214 C145.3439,7.5204 146.4129,8.5054 149.5349,9.7154 C153.3309,11.1784 155.3009,12.6964 155.3009,15.8174 C155.3009,19.7834 151.8699,21.3594 148.5499,21.3594 C146.7779,21.3594 144.4999,20.9644 142.6159,20.1204 L143.2349,18.0124 C145.0639,18.9124 147.0309,19.3054 148.6059,19.3054 C151.0249,19.3054 152.8539,18.2364 152.8539,15.9874 C152.8539,13.9344 151.0809,12.8934 148.0449,11.6554 C144.6129,10.2784 142.8969,8.5614 142.8969,5.8904 C142.8969,2.1774 146.3839,0.6024 149.4229,0.6024 C151.1949,0.6024 152.9669,0.8834 154.3999,1.4454 L153.8099,3.4994 Z M156.0023,6.1707 L158.6463,6.1707 L158.6463,2.4307 L161.0363,2.4307 L161.0363,6.1707 L164.4673,6.1707 L164.4673,8.0567 L161.0363,8.0567 L161.0363,16.9427 C161.0363,18.9677 161.2333,19.3337 162.9203,19.3337 C163.5683,19.3337 163.9883,19.2767 164.4953,19.2217 L164.4953,21.0217 C163.9603,21.1057 163.0323,21.2187 162.2453,21.2187 C159.1513,21.2187 158.6463,19.7267 158.6463,17.0837 L158.6463,8.0567 L156.0023,8.0567 L156.0023,6.1707 Z M172.2005,7.7181 C169.1065,7.7181 167.7005,10.1371 167.7005,13.5661 C167.7005,17.0281 169.1625,19.4741 172.2005,19.4741 C175.2955,19.4741 176.7005,17.0281 176.7005,13.5661 C176.7005,10.1371 175.2955,7.7181 172.2005,7.7181 Z M172.2005,21.3591 C167.9545,21.3591 165.3095,18.4051 165.3095,13.5661 C165.3095,8.7311 167.9545,5.8321 172.2005,5.8321 C176.4475,5.8321 179.0905,8.7311 179.0905,13.5661 C179.0905,18.4051 176.4475,21.3591 172.2005,21.3591 Z M188.203,7.8021 C187.864,7.7461 187.443,7.7181 186.966,7.7181 C184.996,7.7181 183.421,8.8721 183.421,12.3311 L183.421,21.0211 L181.032,21.0211 L181.032,6.1711 L183.335,6.1711 L183.335,8.1681 L183.365,8.1681 C184.097,6.5931 185.333,5.8321 187.245,5.8321 C187.499,5.8321 187.892,5.8321 188.315,5.8901 L188.203,7.8021 Z M190.5076,12.3587 L198.8876,12.3587 L198.8876,12.2457 C198.8876,9.4057 197.2876,7.7177 194.9226,7.7177 C192.2516,7.7177 190.7596,9.6307 190.5076,12.3587 Z M190.5076,14.2437 C190.6756,17.4207 192.6166,19.4747 195.7666,19.4747 C197.1466,19.4747 198.6066,19.2217 199.7616,18.7437 L200.1546,20.5717 C198.9166,21.1057 197.2576,21.3587 195.7116,21.3587 C190.7886,21.3587 188.2006,18.0397 188.2006,13.6247 C188.2006,9.1247 190.7596,5.8327 194.8946,5.8327 C199.0566,5.8327 201.0526,8.7007 201.0526,13.0897 L201.0526,14.2437 L190.5076,14.2437 Z M136.5511,18.6356 L135.6641,18.6356 L135.6641,18.3306 L137.7821,18.3306 L137.7821,18.6356 L136.9021,18.6356 L136.9021,21.0236 L136.5511,21.0236 L136.5511,18.6356 Z M139.2147,21.0233 L138.4767,18.8353 L138.4767,21.0233 L138.1247,21.0233 L138.1247,18.3303 L138.6147,18.3303 L139.3907,20.6243 L140.1697,18.3303 L140.6567,18.3303 L140.6567,21.0233 L140.3057,21.0233 L140.3057,18.8353 L139.5687,21.0233 L139.2147,21.0233 Z" id="icon_ps_store_text"></path>
        </g>
    </g>
</svg>
